<svg id="e0BKkLSAeE21" xmlns="http://www.w3.org/2000/svg" xmlns:xlink="http://www.w3.org/1999/xlink" viewBox="0 0 16 16" shape-rendering="geometricPrecision" text-rendering="geometricPrecision"><path d="M2,0C0.895431,0,0,0.895431,0,2v12c0,1.104569.895431,2,2,2h12c1.104569,0,2-.895431,2-2v-12c0-1.104569-.895431-2-2-2L2,0ZM3.5,2.5c5.523,0,10,4.477,10,10c0,.552285-.447715,1-1,1s-1-.447715-1-1c0-4.418278-3.581722-8-8-8-.552285,0-1-.447715-1-1s.447715-1,1-1m0,4c3.313708,0,6,2.686292,6,6c0,.552285-.447715,1-1,1s-1-.447715-1-1c0-2.209139-1.790861-4-4-4-.552285,0-1-.447715-1-1s.447715-1,1-1m.5,7c-.828427,0-1.5-.671573-1.5-1.5s.671573-1.5,1.5-1.5s1.5.671573,1.5,1.5-.671573,1.5-1.5,1.5" transform="matrix(0-1 1 0 0 16)" fill="#787878"/></svg>
